<svg width="320" height="320" viewBox="0 0 320 320" fill="none" xmlns="http://www.w3.org/2000/svg">
<circle cx="160" cy="160" r="160" fill="#F5F5F5"/>
<path d="M47.96 175V127.8H29.96V115.8H79.88V127.8H61.88V175H47.96ZM83.5075 175V132.6H97.0275V139H97.5075C97.9342 137.88 98.5475 136.787 99.3475 135.72C100.201 134.6 101.374 133.667 102.868 132.92C104.361 132.173 106.334 131.8 108.788 131.8C109.961 131.8 110.894 131.88 111.588 132.04C112.281 132.2 112.628 132.28 112.628 132.28V145.8C112.628 145.8 112.254 145.72 111.508 145.56C110.761 145.4 109.721 145.32 108.388 145.32C104.601 145.32 101.774 146.333 99.9075 148.36C98.0942 150.387 97.1875 153.693 97.1875 158.28V175H83.5075ZM135.49 131.8C138.263 131.8 140.503 132.253 142.21 133.16C143.97 134.067 145.277 135 146.13 135.96C147.037 136.867 147.543 137.427 147.65 137.64H148.29V132.6H161.97V175H148.29V169.96H147.65C147.543 170.173 147.037 170.76 146.13 171.72C145.277 172.68 143.97 173.613 142.21 174.52C140.503 175.373 138.263 175.8 135.49 175.8C132.397 175.8 129.703 175.187 127.41 173.96C125.117 172.68 123.197 171 121.65 168.92C120.103 166.787 118.957 164.413 118.21 161.8C117.463 159.187 117.09 156.52 117.09 153.8C117.09 151.08 117.463 148.413 118.21 145.8C118.957 143.187 120.103 140.84 121.65 138.76C123.197 136.627 125.117 134.947 127.41 133.72C129.703 132.44 132.397 131.8 135.49 131.8ZM139.81 142.76C137.837 142.76 136.183 143.32 134.85 144.44C133.517 145.507 132.53 146.893 131.89 148.6C131.25 150.253 130.93 151.987 130.93 153.8C130.93 155.613 131.25 157.373 131.89 159.08C132.53 160.733 133.517 162.12 134.85 163.24C136.183 164.307 137.837 164.84 139.81 164.84C141.783 164.84 143.41 164.307 144.69 163.24C146.023 162.12 147.01 160.733 147.65 159.08C148.343 157.373 148.69 155.613 148.69 153.8C148.69 151.987 148.343 150.253 147.65 148.6C147.01 146.893 146.023 145.507 144.69 144.44C143.41 143.32 141.783 142.76 139.81 142.76ZM178.849 127.56C176.556 127.56 174.663 126.813 173.169 125.32C171.676 123.827 170.929 122.067 170.929 120.04C170.929 117.907 171.676 116.093 173.169 114.6C174.663 113.107 176.556 112.36 178.849 112.36C181.143 112.36 183.036 113.107 184.529 114.6C186.023 116.093 186.769 117.907 186.769 120.04C186.769 122.067 186.023 123.827 184.529 125.32C183.036 126.813 181.143 127.56 178.849 127.56ZM171.969 175V132.6H185.649V175H171.969ZM195.383 175V132.6H209.063V138.6H209.463C209.996 137.747 210.716 136.787 211.622 135.72C212.583 134.653 213.836 133.747 215.383 133C216.983 132.2 218.956 131.8 221.303 131.8C224.716 131.8 227.436 132.573 229.463 134.12C231.543 135.667 233.036 137.64 233.943 140.04C234.849 142.387 235.303 144.813 235.303 147.32V175H221.623V149.88C221.623 148.067 221.143 146.467 220.183 145.08C219.223 143.64 217.649 142.92 215.463 142.92C213.063 142.92 211.383 143.72 210.423 145.32C209.516 146.867 209.063 148.573 209.063 150.44V175H195.383Z" fill="black"/>
<path d="M191.096 232V184.64H202.168V203.008H219.192V184.64H230.264V232H219.192V212.48H202.168V232H191.096ZM260.935 232.64C256.882 232.64 253.34 231.957 250.311 230.592C247.282 229.184 244.743 227.328 242.695 225.024C240.69 222.677 239.175 220.053 238.151 217.152C237.127 214.251 236.615 211.285 236.615 208.256C236.615 205.227 237.127 202.283 238.151 199.424C239.175 196.523 240.69 193.92 242.695 191.616C244.743 189.312 247.282 187.477 250.311 186.112C253.34 184.704 256.882 184 260.935 184C264.946 184 268.466 184.704 271.495 186.112C274.524 187.477 277.042 189.312 279.047 191.616C281.095 193.92 282.631 196.523 283.655 199.424C284.679 202.283 285.191 205.227 285.191 208.256C285.191 211.2 284.7 214.101 283.719 216.96C282.78 219.776 281.372 222.315 279.495 224.576L285.959 232H274.567L272.775 229.952C271.111 230.805 269.276 231.467 267.271 231.936C265.308 232.405 263.196 232.64 260.935 232.64ZM260.935 222.72C262.599 222.72 264.156 222.443 265.607 221.888L258.439 213.824L265.351 208.256L271.943 215.872C273.095 213.568 273.671 211.029 273.671 208.256C273.671 205.867 273.18 203.584 272.199 201.408C271.26 199.189 269.831 197.376 267.911 195.968C266.034 194.56 263.708 193.856 260.935 193.856C258.119 193.856 255.751 194.56 253.831 195.968C251.954 197.376 250.546 199.189 249.607 201.408C248.668 203.584 248.199 205.867 248.199 208.256C248.199 210.688 248.668 213.013 249.607 215.232C250.546 217.408 251.954 219.2 253.831 220.608C255.751 222.016 258.119 222.72 260.935 222.72Z" fill="#22C55E"/>
</svg>
