<svg width="95" height="49" viewBox="0 0 95 49" fill="none" xmlns="http://www.w3.org/2000/svg">
<path d="M0.0960002 48V0.639999H11.168V19.008H28.192V0.639999H39.264V48H28.192V28.48H11.168V48H0.0960002ZM69.935 48.64C65.8817 48.64 62.3403 47.9573 59.311 46.592C56.2817 45.184 53.743 43.328 51.695 41.024C49.6897 38.6773 48.175 36.0533 47.151 33.152C46.127 30.2507 45.615 27.2853 45.615 24.256C45.615 21.2267 46.127 18.2827 47.151 15.424C48.175 12.5227 49.6897 9.92 51.695 7.616C53.743 5.312 56.2817 3.47733 59.311 2.112C62.3403 0.703997 65.8817 -3.8147e-06 69.935 -3.8147e-06C73.9457 -3.8147e-06 77.4657 0.703997 80.495 2.112C83.5243 3.47733 86.0417 5.312 88.047 7.616C90.095 9.92 91.631 12.5227 92.655 15.424C93.679 18.2827 94.191 21.2267 94.191 24.256C94.191 27.2 93.7003 30.1013 92.719 32.96C91.7803 35.776 90.3723 38.3147 88.495 40.576L94.959 48H83.567L81.775 45.952C80.111 46.8053 78.2763 47.4667 76.271 47.936C74.3083 48.4053 72.1963 48.64 69.935 48.64ZM69.935 38.72C71.599 38.72 73.1563 38.4427 74.607 37.888L67.439 29.824L74.351 24.256L80.943 31.872C82.095 29.568 82.671 27.0293 82.671 24.256C82.671 21.8667 82.1803 19.584 81.199 17.408C80.2603 15.1893 78.831 13.376 76.911 11.968C75.0337 10.56 72.7083 9.856 69.935 9.856C67.119 9.856 64.751 10.56 62.831 11.968C60.9537 13.376 59.5457 15.1893 58.607 17.408C57.6683 19.584 57.199 21.8667 57.199 24.256C57.199 26.688 57.6683 29.0133 58.607 31.232C59.5457 33.408 60.9537 35.2 62.831 36.608C64.751 38.016 67.119 38.72 69.935 38.72Z" fill="#22C55E"/>
</svg>
